<svg width="7" height="12" viewBox="0 0 7 12" fill="none" xmlns="http://www.w3.org/2000/svg">
<path d="M2.08594 8.11719V7.61719C2.08594 7.04427 2.1901 6.56771 2.39844 6.1875C2.60677 5.80729 2.97135 5.41406 3.49219 5.00781C4.11198 4.51823 4.51042 4.13802 4.6875 3.86719C4.86979 3.59635 4.96094 3.27344 4.96094 2.89844C4.96094 2.46094 4.8151 2.125 4.52344 1.89062C4.23177 1.65625 3.8125 1.53906 3.26562 1.53906C2.77083 1.53906 2.3125 1.60938 1.89062 1.75C1.46875 1.89062 1.05729 2.0599 0.65625 2.25781L0 0.882812C1.05729 0.294271 2.1901 0 3.39844 0C4.41927 0 5.22917 0.25 5.82812 0.75C6.42708 1.25 6.72656 1.9401 6.72656 2.82031C6.72656 3.21094 6.66927 3.5599 6.55469 3.86719C6.4401 4.16927 6.26562 4.45833 6.03125 4.73438C5.80208 5.01042 5.40365 5.36979 4.83594 5.8125C4.35156 6.19271 4.02604 6.50781 3.85938 6.75781C3.69792 7.00781 3.61719 7.34375 3.61719 7.76562V8.11719H2.08594ZM1.76562 10.6094C1.76562 9.82292 2.14844 9.42969 2.91406 9.42969C3.28906 9.42969 3.57552 9.53385 3.77344 9.74219C3.97135 9.94531 4.07031 10.2344 4.07031 10.6094C4.07031 10.9792 3.96875 11.2734 3.76562 11.4922C3.56771 11.7057 3.28385 11.8125 2.91406 11.8125C2.54427 11.8125 2.26042 11.7083 2.0625 11.5C1.86458 11.2865 1.76562 10.9896 1.76562 10.6094Z" fill="#383129"/>
</svg>
